<mxfile host="Electron" agent="Mozilla/5.0 (Windows NT 10.0; Win64; x64) AppleWebKit/537.36 (KHTML, like Gecko) draw.io/25.0.2 Chrome/128.0.6613.186 Electron/32.2.5 Safari/537.36" version="25.0.2">
  <diagram name="Страница — 1" id="jCmSklPNzQxJVxEVMiIR">
    <mxGraphModel dx="1036" dy="615" grid="0" gridSize="10" guides="1" tooltips="1" connect="1" arrows="1" fold="1" page="1" pageScale="1" pageWidth="2339" pageHeight="3300" math="0" shadow="0">
      <root>
        <mxCell id="0" />
        <mxCell id="1" parent="0" />
        <mxCell id="jmGItIukLTracGFibQeB-3" value="" style="edgeStyle=orthogonalEdgeStyle;rounded=0;orthogonalLoop=1;jettySize=auto;html=1;" parent="1" source="jmGItIukLTracGFibQeB-1" target="jmGItIukLTracGFibQeB-2" edge="1">
          <mxGeometry relative="1" as="geometry" />
        </mxCell>
        <mxCell id="jmGItIukLTracGFibQeB-1" value="Начало" style="ellipse;whiteSpace=wrap;html=1;" parent="1" vertex="1">
          <mxGeometry x="145" y="40" width="120" height="80" as="geometry" />
        </mxCell>
        <mxCell id="jmGItIukLTracGFibQeB-7" value="" style="edgeStyle=orthogonalEdgeStyle;rounded=0;orthogonalLoop=1;jettySize=auto;html=1;" parent="1" source="jmGItIukLTracGFibQeB-2" target="jmGItIukLTracGFibQeB-6" edge="1">
          <mxGeometry relative="1" as="geometry" />
        </mxCell>
        <mxCell id="jmGItIukLTracGFibQeB-2" value="double F(double x)" style="shape=process;whiteSpace=wrap;html=1;backgroundOutline=1;" parent="1" vertex="1">
          <mxGeometry x="145" y="170" width="120" height="60" as="geometry" />
        </mxCell>
        <mxCell id="jmGItIukLTracGFibQeB-5" style="edgeStyle=orthogonalEdgeStyle;rounded=0;orthogonalLoop=1;jettySize=auto;html=1;exitX=0;exitY=0.5;exitDx=0;exitDy=0;exitPerimeter=0;endArrow=none;endFill=0;strokeWidth=2;dashed=1;" parent="1" source="jmGItIukLTracGFibQeB-4" edge="1">
          <mxGeometry relative="1" as="geometry">
            <mxPoint x="205" y="140" as="targetPoint" />
          </mxGeometry>
        </mxCell>
        <mxCell id="jmGItIukLTracGFibQeB-4" value="#include &amp;lt;iostream&amp;gt;&lt;div&gt;#include &amp;lt;clocale&amp;gt;&lt;/div&gt;&lt;div&gt;#include &amp;lt;cmath&amp;gt;&lt;/div&gt;&lt;div&gt;#include &amp;lt;ctime&amp;gt;&lt;/div&gt;&lt;div&gt;using namespace std;&lt;/div&gt;&lt;div&gt;&lt;br&gt;&lt;/div&gt;&lt;div&gt;double e;&lt;/div&gt;" style="strokeWidth=2;html=1;shape=mxgraph.flowchart.annotation_2;align=left;labelPosition=right;pointerEvents=1;" parent="1" vertex="1">
          <mxGeometry x="375" y="90" width="50" height="100" as="geometry" />
        </mxCell>
        <mxCell id="jmGItIukLTracGFibQeB-6" value="return x - 2 + sin(1 / x);" style="ellipse;whiteSpace=wrap;html=1;" parent="1" vertex="1">
          <mxGeometry x="140" y="260" width="130" height="80" as="geometry" />
        </mxCell>
        <mxCell id="jmGItIukLTracGFibQeB-11" value="" style="edgeStyle=orthogonalEdgeStyle;rounded=0;orthogonalLoop=1;jettySize=auto;html=1;" parent="1" source="jmGItIukLTracGFibQeB-8" target="jmGItIukLTracGFibQeB-10" edge="1">
          <mxGeometry relative="1" as="geometry" />
        </mxCell>
        <mxCell id="jmGItIukLTracGFibQeB-8" value="double F1(double x)" style="shape=process;whiteSpace=wrap;html=1;backgroundOutline=1;" parent="1" vertex="1">
          <mxGeometry x="145" y="380" width="120" height="60" as="geometry" />
        </mxCell>
        <mxCell id="jmGItIukLTracGFibQeB-10" value="return 1 + cos(1 / x) * ((-1) / pow(x, 2));" style="ellipse;whiteSpace=wrap;html=1;" parent="1" vertex="1">
          <mxGeometry x="140" y="470" width="130" height="80" as="geometry" />
        </mxCell>
        <mxCell id="jmGItIukLTracGFibQeB-15" value="" style="edgeStyle=orthogonalEdgeStyle;rounded=0;orthogonalLoop=1;jettySize=auto;html=1;" parent="1" source="jmGItIukLTracGFibQeB-12" target="jmGItIukLTracGFibQeB-14" edge="1">
          <mxGeometry relative="1" as="geometry" />
        </mxCell>
        <mxCell id="jmGItIukLTracGFibQeB-12" value="double F2(double x)" style="shape=process;whiteSpace=wrap;html=1;backgroundOutline=1;" parent="1" vertex="1">
          <mxGeometry x="350" y="380" width="120" height="60" as="geometry" />
        </mxCell>
        <mxCell id="jmGItIukLTracGFibQeB-14" value="return (2 * cos(1 / x) * x - sin(1 / x)) / pow(x, 4);" style="ellipse;whiteSpace=wrap;html=1;" parent="1" vertex="1">
          <mxGeometry x="345" y="470" width="130" height="80" as="geometry" />
        </mxCell>
        <mxCell id="jmGItIukLTracGFibQeB-19" value="" style="edgeStyle=orthogonalEdgeStyle;rounded=0;orthogonalLoop=1;jettySize=auto;html=1;" parent="1" source="jmGItIukLTracGFibQeB-16" target="jmGItIukLTracGFibQeB-18" edge="1">
          <mxGeometry relative="1" as="geometry" />
        </mxCell>
        <mxCell id="jmGItIukLTracGFibQeB-16" value="&lt;div&gt;void n(double a, double b)&lt;/div&gt;" style="shape=process;whiteSpace=wrap;html=1;backgroundOutline=1;" parent="1" vertex="1">
          <mxGeometry x="935" y="50" width="120" height="60" as="geometry" />
        </mxCell>
        <mxCell id="jmGItIukLTracGFibQeB-21" value="" style="edgeStyle=orthogonalEdgeStyle;rounded=0;orthogonalLoop=1;jettySize=auto;html=1;" parent="1" source="jmGItIukLTracGFibQeB-18" target="jmGItIukLTracGFibQeB-20" edge="1">
          <mxGeometry relative="1" as="geometry" />
        </mxCell>
        <mxCell id="jmGItIukLTracGFibQeB-18" value="cout &amp;lt;&amp;lt; &quot;Введите точность: &quot;;" style="shape=parallelogram;perimeter=parallelogramPerimeter;whiteSpace=wrap;html=1;fixedSize=1;" parent="1" vertex="1">
          <mxGeometry x="870" y="140" width="250" height="60" as="geometry" />
        </mxCell>
        <mxCell id="jmGItIukLTracGFibQeB-23" value="" style="edgeStyle=orthogonalEdgeStyle;rounded=0;orthogonalLoop=1;jettySize=auto;html=1;" parent="1" source="jmGItIukLTracGFibQeB-20" target="jmGItIukLTracGFibQeB-22" edge="1">
          <mxGeometry relative="1" as="geometry" />
        </mxCell>
        <mxCell id="jmGItIukLTracGFibQeB-20" value="cin &amp;gt;&amp;gt; e;" style="shape=parallelogram;perimeter=parallelogramPerimeter;whiteSpace=wrap;html=1;fixedSize=1;" parent="1" vertex="1">
          <mxGeometry x="895" y="230" width="200" height="60" as="geometry" />
        </mxCell>
        <mxCell id="jmGItIukLTracGFibQeB-25" value="" style="edgeStyle=orthogonalEdgeStyle;rounded=0;orthogonalLoop=1;jettySize=auto;html=1;" parent="1" source="jmGItIukLTracGFibQeB-22" target="jmGItIukLTracGFibQeB-24" edge="1">
          <mxGeometry relative="1" as="geometry" />
        </mxCell>
        <mxCell id="jmGItIukLTracGFibQeB-22" value="clock_t start = clock();" style="whiteSpace=wrap;html=1;" parent="1" vertex="1">
          <mxGeometry x="920" y="310" width="150" height="60" as="geometry" />
        </mxCell>
        <mxCell id="jmGItIukLTracGFibQeB-27" value="" style="edgeStyle=orthogonalEdgeStyle;rounded=0;orthogonalLoop=1;jettySize=auto;html=1;" parent="1" source="jmGItIukLTracGFibQeB-24" target="jmGItIukLTracGFibQeB-26" edge="1">
          <mxGeometry relative="1" as="geometry" />
        </mxCell>
        <mxCell id="jmGItIukLTracGFibQeB-24" value="double x0, x;" style="whiteSpace=wrap;html=1;" parent="1" vertex="1">
          <mxGeometry x="915" y="390" width="160" height="60" as="geometry" />
        </mxCell>
        <mxCell id="xJNExrtFDD2AnyC6yLWC-2" value="1" style="edgeStyle=orthogonalEdgeStyle;rounded=0;orthogonalLoop=1;jettySize=auto;html=1;fontSize=15;" parent="1" source="jmGItIukLTracGFibQeB-26" target="xJNExrtFDD2AnyC6yLWC-1" edge="1">
          <mxGeometry x="-0.1628" y="-10" relative="1" as="geometry">
            <mxPoint as="offset" />
          </mxGeometry>
        </mxCell>
        <mxCell id="xJNExrtFDD2AnyC6yLWC-6" value="0" style="edgeStyle=orthogonalEdgeStyle;rounded=0;orthogonalLoop=1;jettySize=auto;html=1;fontSize=15;" parent="1" source="jmGItIukLTracGFibQeB-26" target="xJNExrtFDD2AnyC6yLWC-5" edge="1">
          <mxGeometry x="-0.0836" y="10" relative="1" as="geometry">
            <Array as="points">
              <mxPoint x="1260" y="550" />
            </Array>
            <mxPoint as="offset" />
          </mxGeometry>
        </mxCell>
        <mxCell id="jmGItIukLTracGFibQeB-26" value="if (F(a) * F2(a) == 0)" style="rhombus;whiteSpace=wrap;html=1;" parent="1" vertex="1">
          <mxGeometry x="920" y="480" width="150" height="140" as="geometry" />
        </mxCell>
        <mxCell id="xJNExrtFDD2AnyC6yLWC-4" value="" style="edgeStyle=orthogonalEdgeStyle;rounded=0;orthogonalLoop=1;jettySize=auto;html=1;" parent="1" source="xJNExrtFDD2AnyC6yLWC-1" target="xJNExrtFDD2AnyC6yLWC-3" edge="1">
          <mxGeometry relative="1" as="geometry" />
        </mxCell>
        <mxCell id="xJNExrtFDD2AnyC6yLWC-1" value="x0 = a;" style="whiteSpace=wrap;html=1;" parent="1" vertex="1">
          <mxGeometry x="735" y="640" width="120" height="60" as="geometry" />
        </mxCell>
        <mxCell id="Np6BcsovzYqOG47P-RFd-40" style="edgeStyle=orthogonalEdgeStyle;rounded=0;orthogonalLoop=1;jettySize=auto;html=1;exitX=0.5;exitY=1;exitDx=0;exitDy=0;" edge="1" parent="1" source="xJNExrtFDD2AnyC6yLWC-3">
          <mxGeometry relative="1" as="geometry">
            <mxPoint x="1360" y="1999.9999999999995" as="targetPoint" />
            <Array as="points">
              <mxPoint x="795" y="2000" />
            </Array>
          </mxGeometry>
        </mxCell>
        <mxCell id="xJNExrtFDD2AnyC6yLWC-3" value="cout &lt;&lt; &quot;Приближенный корень уравнения: &quot; &lt;&lt; x0;" style="shape=parallelogram;perimeter=parallelogramPerimeter;whiteSpace=wrap;html=1;fixedSize=1;" parent="1" vertex="1">
          <mxGeometry x="640" y="730" width="310" height="60" as="geometry" />
        </mxCell>
        <mxCell id="xJNExrtFDD2AnyC6yLWC-8" value="1" style="edgeStyle=orthogonalEdgeStyle;rounded=0;orthogonalLoop=1;jettySize=auto;html=1;exitX=0;exitY=0.5;exitDx=0;exitDy=0;fontSize=15;" parent="1" source="xJNExrtFDD2AnyC6yLWC-5" target="xJNExrtFDD2AnyC6yLWC-7" edge="1">
          <mxGeometry x="-0.7" y="-10" relative="1" as="geometry">
            <mxPoint as="offset" />
          </mxGeometry>
        </mxCell>
        <mxCell id="Np6BcsovzYqOG47P-RFd-12" value="0" style="edgeStyle=orthogonalEdgeStyle;rounded=0;orthogonalLoop=1;jettySize=auto;html=1;fontSize=15;entryX=0.5;entryY=0;entryDx=0;entryDy=0;" edge="1" parent="1" source="xJNExrtFDD2AnyC6yLWC-5" target="Np6BcsovzYqOG47P-RFd-11">
          <mxGeometry x="-0.0166" y="10" relative="1" as="geometry">
            <Array as="points">
              <mxPoint x="2130" y="670" />
            </Array>
            <mxPoint as="offset" />
          </mxGeometry>
        </mxCell>
        <mxCell id="xJNExrtFDD2AnyC6yLWC-5" value="if (F(a) * F2(a) &amp;gt; 0)" style="rhombus;whiteSpace=wrap;html=1;" parent="1" vertex="1">
          <mxGeometry x="1185" y="600" width="150" height="140" as="geometry" />
        </mxCell>
        <mxCell id="xJNExrtFDD2AnyC6yLWC-10" value="" style="edgeStyle=orthogonalEdgeStyle;rounded=0;orthogonalLoop=1;jettySize=auto;html=1;" parent="1" source="xJNExrtFDD2AnyC6yLWC-7" target="xJNExrtFDD2AnyC6yLWC-9" edge="1">
          <mxGeometry relative="1" as="geometry" />
        </mxCell>
        <mxCell id="xJNExrtFDD2AnyC6yLWC-7" value="x0 = a;" style="whiteSpace=wrap;html=1;" parent="1" vertex="1">
          <mxGeometry x="1095" y="740" width="120" height="60" as="geometry" />
        </mxCell>
        <mxCell id="xJNExrtFDD2AnyC6yLWC-12" value="" style="edgeStyle=orthogonalEdgeStyle;rounded=0;orthogonalLoop=1;jettySize=auto;html=1;" parent="1" source="xJNExrtFDD2AnyC6yLWC-9" target="xJNExrtFDD2AnyC6yLWC-11" edge="1">
          <mxGeometry relative="1" as="geometry" />
        </mxCell>
        <mxCell id="xJNExrtFDD2AnyC6yLWC-9" value="x = x0 - F(x0) / F1(x0);" style="whiteSpace=wrap;html=1;" parent="1" vertex="1">
          <mxGeometry x="1095" y="830" width="120" height="60" as="geometry" />
        </mxCell>
        <mxCell id="xJNExrtFDD2AnyC6yLWC-14" value="" style="edgeStyle=orthogonalEdgeStyle;rounded=0;orthogonalLoop=1;jettySize=auto;html=1;" parent="1" source="xJNExrtFDD2AnyC6yLWC-11" target="xJNExrtFDD2AnyC6yLWC-13" edge="1">
          <mxGeometry relative="1" as="geometry" />
        </mxCell>
        <mxCell id="xJNExrtFDD2AnyC6yLWC-11" value="int k = 0;" style="whiteSpace=wrap;html=1;" parent="1" vertex="1">
          <mxGeometry x="1095" y="920" width="120" height="60" as="geometry" />
        </mxCell>
        <mxCell id="xJNExrtFDD2AnyC6yLWC-16" value="1" style="edgeStyle=orthogonalEdgeStyle;rounded=0;orthogonalLoop=1;jettySize=auto;html=1;fontSize=15;" parent="1" source="xJNExrtFDD2AnyC6yLWC-13" target="xJNExrtFDD2AnyC6yLWC-15" edge="1">
          <mxGeometry x="0.1983" y="15" relative="1" as="geometry">
            <mxPoint as="offset" />
          </mxGeometry>
        </mxCell>
        <mxCell id="xJNExrtFDD2AnyC6yLWC-27" value="0" style="edgeStyle=orthogonalEdgeStyle;rounded=0;orthogonalLoop=1;jettySize=auto;html=1;fontSize=15;" parent="1" source="xJNExrtFDD2AnyC6yLWC-13" target="xJNExrtFDD2AnyC6yLWC-26" edge="1">
          <mxGeometry x="-0.0851" y="10" relative="1" as="geometry">
            <mxPoint as="offset" />
          </mxGeometry>
        </mxCell>
        <mxCell id="xJNExrtFDD2AnyC6yLWC-13" value="while (abs(x0 - x) &amp;gt;= e)" style="rhombus;whiteSpace=wrap;html=1;" parent="1" vertex="1">
          <mxGeometry x="1085" y="1000" width="140" height="140" as="geometry" />
        </mxCell>
        <mxCell id="xJNExrtFDD2AnyC6yLWC-18" value="" style="edgeStyle=orthogonalEdgeStyle;rounded=0;orthogonalLoop=1;jettySize=auto;html=1;" parent="1" source="xJNExrtFDD2AnyC6yLWC-15" target="xJNExrtFDD2AnyC6yLWC-17" edge="1">
          <mxGeometry relative="1" as="geometry" />
        </mxCell>
        <mxCell id="xJNExrtFDD2AnyC6yLWC-15" value="x0 = x - F(x) / F1(x);" style="whiteSpace=wrap;html=1;" parent="1" vertex="1">
          <mxGeometry x="1095" y="1170" width="120" height="60" as="geometry" />
        </mxCell>
        <mxCell id="xJNExrtFDD2AnyC6yLWC-22" value="" style="edgeStyle=orthogonalEdgeStyle;rounded=0;orthogonalLoop=1;jettySize=auto;html=1;" parent="1" source="xJNExrtFDD2AnyC6yLWC-17" target="xJNExrtFDD2AnyC6yLWC-21" edge="1">
          <mxGeometry relative="1" as="geometry" />
        </mxCell>
        <mxCell id="xJNExrtFDD2AnyC6yLWC-17" value="++k;" style="whiteSpace=wrap;html=1;" parent="1" vertex="1">
          <mxGeometry x="1095" y="1260" width="120" height="60" as="geometry" />
        </mxCell>
        <mxCell id="xJNExrtFDD2AnyC6yLWC-24" value="" style="edgeStyle=orthogonalEdgeStyle;rounded=0;orthogonalLoop=1;jettySize=auto;html=1;" parent="1" source="xJNExrtFDD2AnyC6yLWC-21" target="xJNExrtFDD2AnyC6yLWC-23" edge="1">
          <mxGeometry relative="1" as="geometry" />
        </mxCell>
        <mxCell id="xJNExrtFDD2AnyC6yLWC-21" value="cout &amp;lt;&amp;lt; &quot;Корень при &quot; &amp;lt;&amp;lt; k &amp;lt;&amp;lt; &quot; итерации x0 = &quot; &amp;lt;&amp;lt; x0 &amp;lt;&amp;lt; &#39;\n&#39;;" style="shape=parallelogram;perimeter=parallelogramPerimeter;whiteSpace=wrap;html=1;fixedSize=1;" parent="1" vertex="1">
          <mxGeometry x="972.5" y="1350" width="365" height="60" as="geometry" />
        </mxCell>
        <mxCell id="xJNExrtFDD2AnyC6yLWC-25" style="edgeStyle=orthogonalEdgeStyle;rounded=0;orthogonalLoop=1;jettySize=auto;html=1;exitX=0.5;exitY=1;exitDx=0;exitDy=0;" parent="1" source="xJNExrtFDD2AnyC6yLWC-23" edge="1">
          <mxGeometry relative="1" as="geometry">
            <mxPoint x="1155" y="990" as="targetPoint" />
            <Array as="points">
              <mxPoint x="1155" y="1520" />
              <mxPoint x="845" y="1520" />
              <mxPoint x="845" y="990" />
              <mxPoint x="1155" y="990" />
            </Array>
          </mxGeometry>
        </mxCell>
        <mxCell id="xJNExrtFDD2AnyC6yLWC-23" value="x = x0 - F(x0) / F1(x0);" style="whiteSpace=wrap;html=1;" parent="1" vertex="1">
          <mxGeometry x="1095" y="1440" width="120" height="60" as="geometry" />
        </mxCell>
        <mxCell id="xJNExrtFDD2AnyC6yLWC-29" value="" style="edgeStyle=orthogonalEdgeStyle;rounded=0;orthogonalLoop=1;jettySize=auto;html=1;" parent="1" source="xJNExrtFDD2AnyC6yLWC-26" target="xJNExrtFDD2AnyC6yLWC-28" edge="1">
          <mxGeometry relative="1" as="geometry" />
        </mxCell>
        <mxCell id="xJNExrtFDD2AnyC6yLWC-26" value="cout &amp;lt;&amp;lt; &quot;Приближенный корень уравнения: &quot; &amp;lt;&amp;lt; x0 &amp;lt;&amp;lt; &#39;\n&#39; &amp;lt;&amp;lt; &quot;Количество итераций: &quot; &amp;lt;&amp;lt; k &amp;lt;&amp;lt;&#39;\n&#39;;" style="shape=parallelogram;perimeter=parallelogramPerimeter;whiteSpace=wrap;html=1;fixedSize=1;" parent="1" vertex="1">
          <mxGeometry x="1405" y="1170" width="380" height="60" as="geometry" />
        </mxCell>
        <mxCell id="xJNExrtFDD2AnyC6yLWC-31" value="" style="edgeStyle=orthogonalEdgeStyle;rounded=0;orthogonalLoop=1;jettySize=auto;html=1;" parent="1" source="xJNExrtFDD2AnyC6yLWC-28" target="xJNExrtFDD2AnyC6yLWC-30" edge="1">
          <mxGeometry relative="1" as="geometry" />
        </mxCell>
        <mxCell id="xJNExrtFDD2AnyC6yLWC-28" value="clock_t end = clock();" style="whiteSpace=wrap;html=1;" parent="1" vertex="1">
          <mxGeometry x="1535" y="1260" width="120" height="60" as="geometry" />
        </mxCell>
        <mxCell id="Np6BcsovzYqOG47P-RFd-38" style="edgeStyle=orthogonalEdgeStyle;rounded=0;orthogonalLoop=1;jettySize=auto;html=1;exitX=0.5;exitY=1;exitDx=0;exitDy=0;" edge="1" parent="1" source="xJNExrtFDD2AnyC6yLWC-30">
          <mxGeometry relative="1" as="geometry">
            <mxPoint x="1920" y="1810" as="targetPoint" />
            <Array as="points">
              <mxPoint x="1595" y="1810" />
            </Array>
          </mxGeometry>
        </mxCell>
        <mxCell id="xJNExrtFDD2AnyC6yLWC-30" value="cout &amp;lt;&amp;lt; &quot;Время выполнение программы (в миллисекундах): &quot; &amp;lt;&amp;lt; (end - start);" style="shape=parallelogram;perimeter=parallelogramPerimeter;whiteSpace=wrap;html=1;fixedSize=1;" parent="1" vertex="1">
          <mxGeometry x="1370" y="1350" width="450" height="60" as="geometry" />
        </mxCell>
        <mxCell id="Np6BcsovzYqOG47P-RFd-1" value="{" style="text;html=1;align=center;verticalAlign=middle;whiteSpace=wrap;rounded=0;fontSize=17;" vertex="1" parent="1">
          <mxGeometry x="140" y="125" width="60" height="30" as="geometry" />
        </mxCell>
        <mxCell id="Np6BcsovzYqOG47P-RFd-2" value="{" style="text;html=1;align=center;verticalAlign=middle;whiteSpace=wrap;rounded=0;fontSize=17;" vertex="1" parent="1">
          <mxGeometry x="350" y="440" width="60" height="30" as="geometry" />
        </mxCell>
        <mxCell id="Np6BcsovzYqOG47P-RFd-3" value="{" style="text;html=1;align=center;verticalAlign=middle;whiteSpace=wrap;rounded=0;fontSize=17;" vertex="1" parent="1">
          <mxGeometry x="140" y="440" width="60" height="30" as="geometry" />
        </mxCell>
        <mxCell id="Np6BcsovzYqOG47P-RFd-4" value="}" style="text;html=1;align=center;verticalAlign=middle;whiteSpace=wrap;rounded=0;fontSize=17;" vertex="1" parent="1">
          <mxGeometry x="255" y="330" width="60" height="30" as="geometry" />
        </mxCell>
        <mxCell id="Np6BcsovzYqOG47P-RFd-5" value="}" style="text;html=1;align=center;verticalAlign=middle;whiteSpace=wrap;rounded=0;fontSize=17;" vertex="1" parent="1">
          <mxGeometry x="470" y="540" width="60" height="30" as="geometry" />
        </mxCell>
        <mxCell id="Np6BcsovzYqOG47P-RFd-6" value="}" style="text;html=1;align=center;verticalAlign=middle;whiteSpace=wrap;rounded=0;fontSize=17;" vertex="1" parent="1">
          <mxGeometry x="245" y="550" width="60" height="30" as="geometry" />
        </mxCell>
        <mxCell id="Np6BcsovzYqOG47P-RFd-7" value="}" style="text;html=1;align=center;verticalAlign=middle;whiteSpace=wrap;rounded=0;fontSize=17;" vertex="1" parent="1">
          <mxGeometry x="1155" y="1510" width="60" height="30" as="geometry" />
        </mxCell>
        <mxCell id="Np6BcsovzYqOG47P-RFd-8" value="{" style="text;html=1;align=center;verticalAlign=middle;whiteSpace=wrap;rounded=0;fontSize=17;" vertex="1" parent="1">
          <mxGeometry x="920" y="110" width="60" height="30" as="geometry" />
        </mxCell>
        <mxCell id="Np6BcsovzYqOG47P-RFd-9" value="{" style="text;html=1;align=center;verticalAlign=middle;whiteSpace=wrap;rounded=0;fontSize=17;" vertex="1" parent="1">
          <mxGeometry x="1085" y="1130" width="60" height="30" as="geometry" />
        </mxCell>
        <mxCell id="Np6BcsovzYqOG47P-RFd-14" value="" style="edgeStyle=orthogonalEdgeStyle;rounded=0;orthogonalLoop=1;jettySize=auto;html=1;" edge="1" parent="1" source="Np6BcsovzYqOG47P-RFd-11" target="Np6BcsovzYqOG47P-RFd-13">
          <mxGeometry relative="1" as="geometry" />
        </mxCell>
        <mxCell id="Np6BcsovzYqOG47P-RFd-11" value="x0 = b;" style="whiteSpace=wrap;html=1;" vertex="1" parent="1">
          <mxGeometry x="2070" y="730" width="120" height="60" as="geometry" />
        </mxCell>
        <mxCell id="Np6BcsovzYqOG47P-RFd-16" value="" style="edgeStyle=orthogonalEdgeStyle;rounded=0;orthogonalLoop=1;jettySize=auto;html=1;" edge="1" parent="1" source="Np6BcsovzYqOG47P-RFd-13" target="Np6BcsovzYqOG47P-RFd-15">
          <mxGeometry relative="1" as="geometry" />
        </mxCell>
        <mxCell id="Np6BcsovzYqOG47P-RFd-13" value="x = x0 - F(x0) / F1(x0);" style="whiteSpace=wrap;html=1;" vertex="1" parent="1">
          <mxGeometry x="2070" y="830" width="120" height="60" as="geometry" />
        </mxCell>
        <mxCell id="Np6BcsovzYqOG47P-RFd-18" style="edgeStyle=orthogonalEdgeStyle;rounded=0;orthogonalLoop=1;jettySize=auto;html=1;exitX=0.5;exitY=1;exitDx=0;exitDy=0;entryX=0.5;entryY=0;entryDx=0;entryDy=0;" edge="1" parent="1" source="Np6BcsovzYqOG47P-RFd-15" target="Np6BcsovzYqOG47P-RFd-17">
          <mxGeometry relative="1" as="geometry" />
        </mxCell>
        <mxCell id="Np6BcsovzYqOG47P-RFd-15" value="&#xa;&lt;span style=&quot;color: rgb(0, 0, 0); font-family: Helvetica; font-size: 12px; font-style: normal; font-variant-ligatures: normal; font-variant-caps: normal; font-weight: 400; letter-spacing: normal; orphans: 2; text-align: center; text-indent: 0px; text-transform: none; widows: 2; word-spacing: 0px; -webkit-text-stroke-width: 0px; white-space: normal; background-color: rgb(251, 251, 251); text-decoration-thickness: initial; text-decoration-style: initial; text-decoration-color: initial; display: inline !important; float: none;&quot;&gt;int k = 0;&lt;/span&gt;&#xa;&#xa;" style="whiteSpace=wrap;html=1;" vertex="1" parent="1">
          <mxGeometry x="2070" y="920" width="120" height="60" as="geometry" />
        </mxCell>
        <mxCell id="Np6BcsovzYqOG47P-RFd-20" value="1" style="edgeStyle=orthogonalEdgeStyle;rounded=0;orthogonalLoop=1;jettySize=auto;html=1;fontSize=15;" edge="1" parent="1" source="Np6BcsovzYqOG47P-RFd-17" target="Np6BcsovzYqOG47P-RFd-19">
          <mxGeometry x="0.2" y="10" relative="1" as="geometry">
            <mxPoint as="offset" />
          </mxGeometry>
        </mxCell>
        <mxCell id="Np6BcsovzYqOG47P-RFd-29" value="0" style="edgeStyle=orthogonalEdgeStyle;rounded=0;orthogonalLoop=1;jettySize=auto;html=1;entryX=0.5;entryY=0;entryDx=0;entryDy=0;" edge="1" parent="1" source="Np6BcsovzYqOG47P-RFd-17" target="Np6BcsovzYqOG47P-RFd-30">
          <mxGeometry x="-0.1786" y="20" relative="1" as="geometry">
            <mxPoint x="2530" y="1170" as="targetPoint" />
            <mxPoint as="offset" />
          </mxGeometry>
        </mxCell>
        <mxCell id="Np6BcsovzYqOG47P-RFd-17" value="while (abs(x0 - x) &amp;gt;= e)" style="rhombus;whiteSpace=wrap;html=1;" vertex="1" parent="1">
          <mxGeometry x="2060" y="1000" width="140" height="140" as="geometry" />
        </mxCell>
        <mxCell id="Np6BcsovzYqOG47P-RFd-22" value="" style="edgeStyle=orthogonalEdgeStyle;rounded=0;orthogonalLoop=1;jettySize=auto;html=1;" edge="1" parent="1" source="Np6BcsovzYqOG47P-RFd-19" target="Np6BcsovzYqOG47P-RFd-21">
          <mxGeometry relative="1" as="geometry" />
        </mxCell>
        <mxCell id="Np6BcsovzYqOG47P-RFd-19" value="x0 = x - F(x) / F1(x);" style="whiteSpace=wrap;html=1;" vertex="1" parent="1">
          <mxGeometry x="2070" y="1170" width="120" height="60" as="geometry" />
        </mxCell>
        <mxCell id="Np6BcsovzYqOG47P-RFd-24" style="edgeStyle=orthogonalEdgeStyle;rounded=0;orthogonalLoop=1;jettySize=auto;html=1;exitX=0.5;exitY=1;exitDx=0;exitDy=0;entryX=0.5;entryY=0;entryDx=0;entryDy=0;" edge="1" parent="1" source="Np6BcsovzYqOG47P-RFd-21" target="Np6BcsovzYqOG47P-RFd-23">
          <mxGeometry relative="1" as="geometry" />
        </mxCell>
        <mxCell id="Np6BcsovzYqOG47P-RFd-21" value="&#xa;&lt;span style=&quot;color: rgb(0, 0, 0); font-family: Helvetica; font-size: 12px; font-style: normal; font-variant-ligatures: normal; font-variant-caps: normal; font-weight: 400; letter-spacing: normal; orphans: 2; text-align: center; text-indent: 0px; text-transform: none; widows: 2; word-spacing: 0px; -webkit-text-stroke-width: 0px; white-space: normal; background-color: rgb(251, 251, 251); text-decoration-thickness: initial; text-decoration-style: initial; text-decoration-color: initial; display: inline !important; float: none;&quot;&gt;++k;&lt;/span&gt;&#xa;&#xa;" style="whiteSpace=wrap;html=1;" vertex="1" parent="1">
          <mxGeometry x="2070" y="1260" width="120" height="60" as="geometry" />
        </mxCell>
        <mxCell id="Np6BcsovzYqOG47P-RFd-26" value="" style="edgeStyle=orthogonalEdgeStyle;rounded=0;orthogonalLoop=1;jettySize=auto;html=1;" edge="1" parent="1" source="Np6BcsovzYqOG47P-RFd-23" target="Np6BcsovzYqOG47P-RFd-25">
          <mxGeometry relative="1" as="geometry" />
        </mxCell>
        <mxCell id="Np6BcsovzYqOG47P-RFd-23" value="cout &amp;lt;&amp;lt; &quot;Корень при &quot; &amp;lt;&amp;lt; k &amp;lt;&amp;lt; &quot; итерации x0 = &quot; &amp;lt;&amp;lt; x0 &amp;lt;&amp;lt; &#39;\n&#39;;" style="shape=parallelogram;perimeter=parallelogramPerimeter;whiteSpace=wrap;html=1;fixedSize=1;" vertex="1" parent="1">
          <mxGeometry x="1947.5" y="1350" width="365" height="60" as="geometry" />
        </mxCell>
        <mxCell id="Np6BcsovzYqOG47P-RFd-27" style="edgeStyle=orthogonalEdgeStyle;rounded=0;orthogonalLoop=1;jettySize=auto;html=1;exitX=0.5;exitY=1;exitDx=0;exitDy=0;" edge="1" parent="1" source="Np6BcsovzYqOG47P-RFd-25">
          <mxGeometry relative="1" as="geometry">
            <mxPoint x="2130" y="990" as="targetPoint" />
            <Array as="points">
              <mxPoint x="2130" y="1520" />
              <mxPoint x="1910" y="1520" />
              <mxPoint x="1910" y="990" />
            </Array>
          </mxGeometry>
        </mxCell>
        <mxCell id="Np6BcsovzYqOG47P-RFd-25" value="&#xa;&lt;span style=&quot;color: rgb(0, 0, 0); font-family: Helvetica; font-size: 12px; font-style: normal; font-variant-ligatures: normal; font-variant-caps: normal; font-weight: 400; letter-spacing: normal; orphans: 2; text-align: center; text-indent: 0px; text-transform: none; widows: 2; word-spacing: 0px; -webkit-text-stroke-width: 0px; white-space: normal; background-color: rgb(251, 251, 251); text-decoration-thickness: initial; text-decoration-style: initial; text-decoration-color: initial; display: inline !important; float: none;&quot;&gt;x = x0 - F(x0) / F1(x0);&lt;/span&gt;&#xa;&#xa;" style="whiteSpace=wrap;html=1;" vertex="1" parent="1">
          <mxGeometry x="2070" y="1440" width="120" height="60" as="geometry" />
        </mxCell>
        <mxCell id="Np6BcsovzYqOG47P-RFd-32" style="edgeStyle=orthogonalEdgeStyle;rounded=0;orthogonalLoop=1;jettySize=auto;html=1;exitX=0.5;exitY=1;exitDx=0;exitDy=0;entryX=0.5;entryY=0;entryDx=0;entryDy=0;" edge="1" parent="1" source="Np6BcsovzYqOG47P-RFd-30" target="Np6BcsovzYqOG47P-RFd-31">
          <mxGeometry relative="1" as="geometry" />
        </mxCell>
        <mxCell id="Np6BcsovzYqOG47P-RFd-30" value="cout &amp;lt;&amp;lt; &quot;Приближенный корень уравнения: &quot; &amp;lt;&amp;lt; x0 &amp;lt;&amp;lt; &#39;\n&#39; &amp;lt;&amp;lt; &quot;Количество итераций: &quot; &amp;lt;&amp;lt; k &amp;lt;&amp;lt;&#39;\n&#39;;" style="shape=parallelogram;perimeter=parallelogramPerimeter;whiteSpace=wrap;html=1;fixedSize=1;" vertex="1" parent="1">
          <mxGeometry x="2410" y="1170" width="380" height="60" as="geometry" />
        </mxCell>
        <mxCell id="Np6BcsovzYqOG47P-RFd-35" style="edgeStyle=orthogonalEdgeStyle;rounded=0;orthogonalLoop=1;jettySize=auto;html=1;exitX=0.5;exitY=1;exitDx=0;exitDy=0;entryX=0.5;entryY=0;entryDx=0;entryDy=0;" edge="1" parent="1" source="Np6BcsovzYqOG47P-RFd-31" target="Np6BcsovzYqOG47P-RFd-33">
          <mxGeometry relative="1" as="geometry" />
        </mxCell>
        <mxCell id="Np6BcsovzYqOG47P-RFd-31" value="clock_t end = clock();" style="whiteSpace=wrap;html=1;" vertex="1" parent="1">
          <mxGeometry x="2540" y="1260" width="120" height="60" as="geometry" />
        </mxCell>
        <mxCell id="Np6BcsovzYqOG47P-RFd-39" style="edgeStyle=orthogonalEdgeStyle;rounded=0;orthogonalLoop=1;jettySize=auto;html=1;exitX=0.5;exitY=1;exitDx=0;exitDy=0;" edge="1" parent="1" source="Np6BcsovzYqOG47P-RFd-33">
          <mxGeometry relative="1" as="geometry">
            <mxPoint x="1920" y="1810" as="targetPoint" />
            <Array as="points">
              <mxPoint x="2600" y="1810" />
              <mxPoint x="1920" y="1810" />
            </Array>
          </mxGeometry>
        </mxCell>
        <mxCell id="Np6BcsovzYqOG47P-RFd-33" value="cout &amp;lt;&amp;lt; &quot;Время выполнение программы (в миллисекундах): &quot; &amp;lt;&amp;lt; (end - start);" style="shape=parallelogram;perimeter=parallelogramPerimeter;whiteSpace=wrap;html=1;fixedSize=1;" vertex="1" parent="1">
          <mxGeometry x="2375" y="1350" width="450" height="60" as="geometry" />
        </mxCell>
        <mxCell id="Np6BcsovzYqOG47P-RFd-36" value="{" style="text;html=1;align=center;verticalAlign=middle;whiteSpace=wrap;rounded=0;fontSize=17;" vertex="1" parent="1">
          <mxGeometry x="2060" y="1130" width="60" height="30" as="geometry" />
        </mxCell>
        <mxCell id="Np6BcsovzYqOG47P-RFd-37" value="}" style="text;html=1;align=center;verticalAlign=middle;whiteSpace=wrap;rounded=0;fontSize=17;" vertex="1" parent="1">
          <mxGeometry x="2130" y="1510" width="60" height="30" as="geometry" />
        </mxCell>
        <mxCell id="Np6BcsovzYqOG47P-RFd-41" value="" style="endArrow=classic;html=1;rounded=0;" edge="1" parent="1">
          <mxGeometry width="50" height="50" relative="1" as="geometry">
            <mxPoint x="1920" y="1810" as="sourcePoint" />
            <mxPoint x="1360" y="2000" as="targetPoint" />
            <Array as="points">
              <mxPoint x="1920" y="2000" />
            </Array>
          </mxGeometry>
        </mxCell>
        <mxCell id="Np6BcsovzYqOG47P-RFd-42" value="" style="endArrow=classic;html=1;rounded=0;entryX=0.5;entryY=0;entryDx=0;entryDy=0;" edge="1" parent="1" target="Np6BcsovzYqOG47P-RFd-43">
          <mxGeometry width="50" height="50" relative="1" as="geometry">
            <mxPoint x="1360" y="2000" as="sourcePoint" />
            <mxPoint x="1360" y="2050" as="targetPoint" />
          </mxGeometry>
        </mxCell>
        <mxCell id="Np6BcsovzYqOG47P-RFd-43" value="Конец" style="ellipse;whiteSpace=wrap;html=1;" vertex="1" parent="1">
          <mxGeometry x="1300" y="2040" width="120" height="80" as="geometry" />
        </mxCell>
        <mxCell id="Np6BcsovzYqOG47P-RFd-44" value="{" style="text;html=1;align=center;verticalAlign=middle;whiteSpace=wrap;rounded=0;fontSize=17;" vertex="1" parent="1">
          <mxGeometry x="735" y="580" width="60" height="30" as="geometry" />
        </mxCell>
        <mxCell id="Np6BcsovzYqOG47P-RFd-45" value="{" style="text;html=1;align=center;verticalAlign=middle;whiteSpace=wrap;rounded=0;fontSize=17;" vertex="1" parent="1">
          <mxGeometry x="1085" y="690" width="60" height="30" as="geometry" />
        </mxCell>
        <mxCell id="Np6BcsovzYqOG47P-RFd-46" value="{" style="text;html=1;align=center;verticalAlign=middle;whiteSpace=wrap;rounded=0;fontSize=17;" vertex="1" parent="1">
          <mxGeometry x="2070" y="680" width="60" height="30" as="geometry" />
        </mxCell>
        <mxCell id="Np6BcsovzYqOG47P-RFd-47" value="}" style="text;html=1;align=center;verticalAlign=middle;whiteSpace=wrap;rounded=0;fontSize=17;" vertex="1" parent="1">
          <mxGeometry x="810" y="820" width="60" height="30" as="geometry" />
        </mxCell>
        <mxCell id="Np6BcsovzYqOG47P-RFd-48" value="}" style="text;html=1;align=center;verticalAlign=middle;whiteSpace=wrap;rounded=0;fontSize=17;" vertex="1" parent="1">
          <mxGeometry x="2620" y="1680" width="60" height="30" as="geometry" />
        </mxCell>
        <mxCell id="Np6BcsovzYqOG47P-RFd-49" value="}" style="text;html=1;align=center;verticalAlign=middle;whiteSpace=wrap;rounded=0;fontSize=17;" vertex="1" parent="1">
          <mxGeometry x="1620" y="1450" width="60" height="30" as="geometry" />
        </mxCell>
        <mxCell id="Np6BcsovzYqOG47P-RFd-55" value="" style="edgeStyle=orthogonalEdgeStyle;rounded=0;orthogonalLoop=1;jettySize=auto;html=1;" edge="1" parent="1" source="Np6BcsovzYqOG47P-RFd-53" target="Np6BcsovzYqOG47P-RFd-54">
          <mxGeometry relative="1" as="geometry" />
        </mxCell>
        <mxCell id="Np6BcsovzYqOG47P-RFd-53" value="int main()" style="shape=process;whiteSpace=wrap;html=1;backgroundOutline=1;" vertex="1" parent="1">
          <mxGeometry x="150" y="650" width="120" height="60" as="geometry" />
        </mxCell>
        <mxCell id="Np6BcsovzYqOG47P-RFd-57" value="" style="edgeStyle=orthogonalEdgeStyle;rounded=0;orthogonalLoop=1;jettySize=auto;html=1;" edge="1" parent="1" source="Np6BcsovzYqOG47P-RFd-54" target="Np6BcsovzYqOG47P-RFd-56">
          <mxGeometry relative="1" as="geometry" />
        </mxCell>
        <mxCell id="Np6BcsovzYqOG47P-RFd-54" value="setlocale(LC_ALL, &quot;Russian&quot;);" style="whiteSpace=wrap;html=1;" vertex="1" parent="1">
          <mxGeometry x="150" y="750" width="120" height="60" as="geometry" />
        </mxCell>
        <mxCell id="Np6BcsovzYqOG47P-RFd-59" value="" style="edgeStyle=orthogonalEdgeStyle;rounded=0;orthogonalLoop=1;jettySize=auto;html=1;" edge="1" parent="1" source="Np6BcsovzYqOG47P-RFd-56" target="Np6BcsovzYqOG47P-RFd-58">
          <mxGeometry relative="1" as="geometry" />
        </mxCell>
        <mxCell id="Np6BcsovzYqOG47P-RFd-56" value="n(1,2);" style="whiteSpace=wrap;html=1;" vertex="1" parent="1">
          <mxGeometry x="150" y="840" width="120" height="60" as="geometry" />
        </mxCell>
        <mxCell id="Np6BcsovzYqOG47P-RFd-58" value="return 0;" style="ellipse;whiteSpace=wrap;html=1;" vertex="1" parent="1">
          <mxGeometry x="155" y="940" width="110" height="80" as="geometry" />
        </mxCell>
        <mxCell id="Np6BcsovzYqOG47P-RFd-60" value="{" style="text;html=1;align=center;verticalAlign=middle;whiteSpace=wrap;rounded=0;fontSize=17;" vertex="1" parent="1">
          <mxGeometry x="145" y="720" width="60" height="30" as="geometry" />
        </mxCell>
        <mxCell id="Np6BcsovzYqOG47P-RFd-61" value="}" style="text;html=1;align=center;verticalAlign=middle;whiteSpace=wrap;rounded=0;fontSize=17;" vertex="1" parent="1">
          <mxGeometry x="240" y="1010" width="60" height="30" as="geometry" />
        </mxCell>
        <mxCell id="Np6BcsovzYqOG47P-RFd-62" value="&lt;span style=&quot;font-size: 23px;&quot;&gt;γ&lt;/span&gt;" style="strokeWidth=2;html=1;shape=mxgraph.flowchart.start_2;whiteSpace=wrap;" vertex="1" parent="1">
          <mxGeometry x="1286" y="378" width="72" height="75" as="geometry" />
        </mxCell>
      </root>
    </mxGraphModel>
  </diagram>
</mxfile>
